<mxfile host="65bd71144e">
    <diagram id="vR1wObXb0Fl8Qe1qTvs4" name="Page-1">
        <mxGraphModel dx="1013" dy="630" grid="0" gridSize="10" guides="1" tooltips="1" connect="1" arrows="1" fold="1" page="1" pageScale="1" pageWidth="1169" pageHeight="827" math="0" shadow="0">
            <root>
                <mxCell id="0"/>
                <mxCell id="1" parent="0"/>
                <mxCell id="37" style="edgeStyle=none;rounded=0;html=1;exitX=1;exitY=0.5;exitDx=0;exitDy=0;entryX=0;entryY=0;entryDx=0;entryDy=0;" parent="1" source="2" target="4" edge="1">
                    <mxGeometry relative="1" as="geometry"/>
                </mxCell>
                <mxCell id="2" value="fs1" style="whiteSpace=wrap;html=1;" parent="1" vertex="1">
                    <mxGeometry x="120" y="100" width="50" height="40" as="geometry"/>
                </mxCell>
                <mxCell id="38" style="edgeStyle=none;rounded=0;html=1;entryX=0;entryY=0;entryDx=0;entryDy=0;" parent="1" source="3" target="10" edge="1">
                    <mxGeometry relative="1" as="geometry"/>
                </mxCell>
                <mxCell id="3" value="fs2" style="whiteSpace=wrap;html=1;" parent="1" vertex="1">
                    <mxGeometry x="120" y="250" width="50" height="40" as="geometry"/>
                </mxCell>
                <mxCell id="4" value="..." style="whiteSpace=wrap;html=1;" parent="1" vertex="1">
                    <mxGeometry x="240" y="120" width="120" height="20" as="geometry"/>
                </mxCell>
                <mxCell id="31" style="edgeStyle=none;rounded=0;html=1;exitX=1;exitY=0.5;exitDx=0;exitDy=0;entryX=0;entryY=0.5;entryDx=0;entryDy=0;" parent="1" source="5" target="16" edge="1">
                    <mxGeometry relative="1" as="geometry">
                        <Array as="points">
                            <mxPoint x="380" y="150"/>
                            <mxPoint x="380" y="140"/>
                        </Array>
                    </mxGeometry>
                </mxCell>
                <mxCell id="5" value="_IO_buf_base" style="whiteSpace=wrap;html=1;" parent="1" vertex="1">
                    <mxGeometry x="240" y="140" width="120" height="20" as="geometry"/>
                </mxCell>
                <mxCell id="32" style="edgeStyle=none;rounded=0;html=1;exitX=1;exitY=0.5;exitDx=0;exitDy=0;entryX=0.5;entryY=1;entryDx=0;entryDy=0;" parent="1" source="6" target="19" edge="1">
                    <mxGeometry relative="1" as="geometry">
                        <Array as="points">
                            <mxPoint x="370" y="170"/>
                            <mxPoint x="510" y="170"/>
                        </Array>
                    </mxGeometry>
                </mxCell>
                <mxCell id="6" value="_IO_buf_end" style="whiteSpace=wrap;html=1;" parent="1" vertex="1">
                    <mxGeometry x="240" y="160" width="120" height="20" as="geometry"/>
                </mxCell>
                <mxCell id="35" style="edgeStyle=none;rounded=0;html=1;exitX=1;exitY=0.5;exitDx=0;exitDy=0;entryX=0;entryY=1;entryDx=0;entryDy=0;" parent="1" source="7" target="65" edge="1">
                    <mxGeometry relative="1" as="geometry">
                        <Array as="points">
                            <mxPoint x="595" y="190"/>
                            <mxPoint x="595" y="255"/>
                        </Array>
                        <mxPoint x="595" y="230.0000000000001" as="targetPoint"/>
                    </mxGeometry>
                </mxCell>
                <mxCell id="7" value="_fileno" style="whiteSpace=wrap;html=1;" parent="1" vertex="1">
                    <mxGeometry x="240" y="180" width="120" height="20" as="geometry"/>
                </mxCell>
                <mxCell id="8" value="..." style="whiteSpace=wrap;html=1;" parent="1" vertex="1">
                    <mxGeometry x="240" y="200" width="120" height="20" as="geometry"/>
                </mxCell>
                <mxCell id="9" value="struct _IO_FILE" style="text;html=1;resizable=0;autosize=1;align=center;verticalAlign=middle;points=[];fillColor=none;strokeColor=none;rounded=0;" parent="1" vertex="1">
                    <mxGeometry x="250" y="100" width="100" height="20" as="geometry"/>
                </mxCell>
                <mxCell id="10" value="..." style="whiteSpace=wrap;html=1;" parent="1" vertex="1">
                    <mxGeometry x="240" y="270" width="120" height="20" as="geometry"/>
                </mxCell>
                <mxCell id="30" style="edgeStyle=none;html=1;exitX=1;exitY=0.5;exitDx=0;exitDy=0;entryX=0;entryY=0.5;entryDx=0;entryDy=0;rounded=0;" parent="1" source="11" target="25" edge="1">
                    <mxGeometry relative="1" as="geometry">
                        <Array as="points">
                            <mxPoint x="380" y="300"/>
                            <mxPoint x="380" y="290"/>
                        </Array>
                    </mxGeometry>
                </mxCell>
                <mxCell id="11" value="_IO_buf_base" style="whiteSpace=wrap;html=1;" parent="1" vertex="1">
                    <mxGeometry x="240" y="290" width="120" height="20" as="geometry"/>
                </mxCell>
                <mxCell id="33" style="edgeStyle=none;rounded=0;html=1;exitX=1;exitY=0.5;exitDx=0;exitDy=0;entryX=0.5;entryY=1;entryDx=0;entryDy=0;" parent="1" source="12" target="28" edge="1">
                    <mxGeometry relative="1" as="geometry">
                        <Array as="points">
                            <mxPoint x="370" y="320"/>
                            <mxPoint x="400" y="320"/>
                            <mxPoint x="510" y="320"/>
                        </Array>
                    </mxGeometry>
                </mxCell>
                <mxCell id="12" value="_IO_buf_end" style="whiteSpace=wrap;html=1;" parent="1" vertex="1">
                    <mxGeometry x="240" y="310" width="120" height="20" as="geometry"/>
                </mxCell>
                <mxCell id="36" style="edgeStyle=none;rounded=0;html=1;exitX=1;exitY=0.5;exitDx=0;exitDy=0;entryX=0;entryY=0;entryDx=0;entryDy=0;" parent="1" source="13" target="81" edge="1">
                    <mxGeometry relative="1" as="geometry">
                        <Array as="points">
                            <mxPoint x="595" y="340"/>
                            <mxPoint x="595" y="275"/>
                        </Array>
                        <mxPoint x="595" y="270.0000000000001" as="targetPoint"/>
                    </mxGeometry>
                </mxCell>
                <mxCell id="13" value="_fileno" style="whiteSpace=wrap;html=1;" parent="1" vertex="1">
                    <mxGeometry x="240" y="330" width="120" height="20" as="geometry"/>
                </mxCell>
                <mxCell id="14" value="..." style="whiteSpace=wrap;html=1;" parent="1" vertex="1">
                    <mxGeometry x="240" y="350" width="120" height="20" as="geometry"/>
                </mxCell>
                <mxCell id="15" value="struct _IO_FILE" style="text;html=1;resizable=0;autosize=1;align=center;verticalAlign=middle;points=[];fillColor=none;strokeColor=none;rounded=0;" parent="1" vertex="1">
                    <mxGeometry x="250" y="250" width="100" height="20" as="geometry"/>
                </mxCell>
                <mxCell id="16" value="0" style="whiteSpace=wrap;html=1;" parent="1" vertex="1">
                    <mxGeometry x="405" y="125" width="30" height="30" as="geometry"/>
                </mxCell>
                <mxCell id="17" value="1" style="whiteSpace=wrap;html=1;" parent="1" vertex="1">
                    <mxGeometry x="435" y="125" width="30" height="30" as="geometry"/>
                </mxCell>
                <mxCell id="18" value="..." style="whiteSpace=wrap;html=1;" parent="1" vertex="1">
                    <mxGeometry x="465" y="125" width="30" height="30" as="geometry"/>
                </mxCell>
                <mxCell id="19" value="19" style="whiteSpace=wrap;html=1;" parent="1" vertex="1">
                    <mxGeometry x="495" y="125" width="30" height="30" as="geometry"/>
                </mxCell>
                <mxCell id="20" value="buf1" style="text;html=1;resizable=0;autosize=1;align=center;verticalAlign=middle;points=[];fillColor=none;strokeColor=none;rounded=0;" parent="1" vertex="1">
                    <mxGeometry x="400" y="105" width="40" height="20" as="geometry"/>
                </mxCell>
                <mxCell id="25" value="0" style="whiteSpace=wrap;html=1;" parent="1" vertex="1">
                    <mxGeometry x="405" y="275" width="30" height="30" as="geometry"/>
                </mxCell>
                <mxCell id="26" value="1" style="whiteSpace=wrap;html=1;" parent="1" vertex="1">
                    <mxGeometry x="435" y="275" width="30" height="30" as="geometry"/>
                </mxCell>
                <mxCell id="27" value="..." style="whiteSpace=wrap;html=1;" parent="1" vertex="1">
                    <mxGeometry x="465" y="275" width="30" height="30" as="geometry"/>
                </mxCell>
                <mxCell id="28" value="19" style="whiteSpace=wrap;html=1;" parent="1" vertex="1">
                    <mxGeometry x="495" y="275" width="30" height="30" as="geometry"/>
                </mxCell>
                <mxCell id="29" value="buf1" style="text;html=1;resizable=0;autosize=1;align=center;verticalAlign=middle;points=[];fillColor=none;strokeColor=none;rounded=0;" parent="1" vertex="1">
                    <mxGeometry x="400" y="255" width="40" height="20" as="geometry"/>
                </mxCell>
                <mxCell id="59" style="edgeStyle=none;rounded=0;html=1;endArrow=none;endFill=0;dashed=1;" parent="1" edge="1">
                    <mxGeometry relative="1" as="geometry">
                        <mxPoint x="630" y="30" as="sourcePoint"/>
                        <mxPoint x="630" y="421.23458297164353" as="targetPoint"/>
                    </mxGeometry>
                </mxCell>
                <mxCell id="57" value="User Space" style="text;html=1;resizable=0;autosize=1;align=center;verticalAlign=middle;points=[];fillColor=none;strokeColor=none;rounded=0;" parent="1" vertex="1">
                    <mxGeometry x="495" y="40" width="80" height="20" as="geometry"/>
                </mxCell>
                <mxCell id="58" value="Kernel Space" style="text;html=1;resizable=0;autosize=1;align=center;verticalAlign=middle;points=[];fillColor=none;strokeColor=none;rounded=0;" parent="1" vertex="1">
                    <mxGeometry x="655" y="40" width="90" height="20" as="geometry"/>
                </mxCell>
                <mxCell id="62" value="count" style="whiteSpace=wrap;html=1;" vertex="1" parent="1">
                    <mxGeometry x="670" y="175" width="120" height="20" as="geometry"/>
                </mxCell>
                <mxCell id="63" value="..." style="whiteSpace=wrap;html=1;" vertex="1" parent="1">
                    <mxGeometry x="670" y="195" width="120" height="20" as="geometry"/>
                </mxCell>
                <mxCell id="64" value="fd[0]" style="whiteSpace=wrap;html=1;" vertex="1" parent="1">
                    <mxGeometry x="670" y="215" width="120" height="20" as="geometry"/>
                </mxCell>
                <mxCell id="65" value="fd[1]" style="whiteSpace=wrap;html=1;" vertex="1" parent="1">
                    <mxGeometry x="670" y="235" width="120" height="20" as="geometry"/>
                </mxCell>
                <mxCell id="66" value="fd[...]" style="whiteSpace=wrap;html=1;" vertex="1" parent="1">
                    <mxGeometry x="670" y="315" width="120" height="20" as="geometry"/>
                </mxCell>
                <mxCell id="67" value="fd[255]" style="whiteSpace=wrap;html=1;" vertex="1" parent="1">
                    <mxGeometry x="670" y="335" width="120" height="20" as="geometry"/>
                </mxCell>
                <mxCell id="68" value="struct files_struct" style="text;html=1;resizable=0;autosize=1;align=center;verticalAlign=middle;points=[];fillColor=none;strokeColor=none;rounded=0;" vertex="1" parent="1">
                    <mxGeometry x="670" y="155" width="110" height="20" as="geometry"/>
                </mxCell>
                <mxCell id="69" style="edgeStyle=none;rounded=0;html=1;exitX=1;exitY=0.5;exitDx=0;exitDy=0;entryX=0;entryY=0;entryDx=0;entryDy=0;" edge="1" parent="1" source="70" target="77">
                    <mxGeometry relative="1" as="geometry">
                        <Array as="points">
                            <mxPoint x="970" y="295"/>
                            <mxPoint x="970" y="275"/>
                        </Array>
                    </mxGeometry>
                </mxCell>
                <mxCell id="70" value="*f_node" style="whiteSpace=wrap;html=1;" vertex="1" parent="1">
                    <mxGeometry x="830" y="285" width="120" height="20" as="geometry"/>
                </mxCell>
                <mxCell id="71" value="*f_op" style="whiteSpace=wrap;html=1;" vertex="1" parent="1">
                    <mxGeometry x="830" y="305" width="120" height="20" as="geometry"/>
                </mxCell>
                <mxCell id="72" value="f_count" style="whiteSpace=wrap;html=1;" vertex="1" parent="1">
                    <mxGeometry x="830" y="325" width="120" height="20" as="geometry"/>
                </mxCell>
                <mxCell id="73" value="f_flags" style="whiteSpace=wrap;html=1;" vertex="1" parent="1">
                    <mxGeometry x="830" y="345" width="120" height="20" as="geometry"/>
                </mxCell>
                <mxCell id="74" value="f_mode" style="whiteSpace=wrap;html=1;" vertex="1" parent="1">
                    <mxGeometry x="830" y="365" width="120" height="20" as="geometry"/>
                </mxCell>
                <mxCell id="75" value="f_pos" style="whiteSpace=wrap;html=1;" vertex="1" parent="1">
                    <mxGeometry x="830" y="385" width="120" height="20" as="geometry"/>
                </mxCell>
                <mxCell id="76" value="..." style="whiteSpace=wrap;html=1;" vertex="1" parent="1">
                    <mxGeometry x="830" y="405" width="120" height="20" as="geometry"/>
                </mxCell>
                <mxCell id="77" value="struct inode" style="whiteSpace=wrap;html=1;" vertex="1" parent="1">
                    <mxGeometry x="990" y="275" width="120" height="20" as="geometry"/>
                </mxCell>
                <mxCell id="78" style="edgeStyle=none;rounded=0;html=1;exitX=1;exitY=0.5;exitDx=0;exitDy=0;entryX=0;entryY=0;entryDx=0;entryDy=0;" edge="1" parent="1" source="79" target="84">
                    <mxGeometry relative="1" as="geometry">
                        <Array as="points">
                            <mxPoint x="810" y="265"/>
                            <mxPoint x="810" y="95"/>
                        </Array>
                    </mxGeometry>
                </mxCell>
                <mxCell id="79" value="fd[2]" style="whiteSpace=wrap;html=1;" vertex="1" parent="1">
                    <mxGeometry x="670" y="255" width="120" height="20" as="geometry"/>
                </mxCell>
                <mxCell id="80" style="edgeStyle=none;rounded=0;html=1;exitX=1;exitY=0.5;exitDx=0;exitDy=0;entryX=0;entryY=0;entryDx=0;entryDy=0;" edge="1" parent="1" source="81" target="70">
                    <mxGeometry relative="1" as="geometry"/>
                </mxCell>
                <mxCell id="81" value="fd[3]" style="whiteSpace=wrap;html=1;" vertex="1" parent="1">
                    <mxGeometry x="670" y="275" width="120" height="20" as="geometry"/>
                </mxCell>
                <mxCell id="82" value="fd[4]" style="whiteSpace=wrap;html=1;" vertex="1" parent="1">
                    <mxGeometry x="670" y="295" width="120" height="20" as="geometry"/>
                </mxCell>
                <mxCell id="83" style="edgeStyle=none;html=1;exitX=1;exitY=0.5;exitDx=0;exitDy=0;entryX=0;entryY=0;entryDx=0;entryDy=0;rounded=0;" edge="1" parent="1" source="84" target="77">
                    <mxGeometry relative="1" as="geometry">
                        <Array as="points">
                            <mxPoint x="970" y="105"/>
                            <mxPoint x="970" y="275"/>
                        </Array>
                    </mxGeometry>
                </mxCell>
                <mxCell id="84" value="*f_node" style="whiteSpace=wrap;html=1;" vertex="1" parent="1">
                    <mxGeometry x="830" y="95" width="120" height="20" as="geometry"/>
                </mxCell>
                <mxCell id="85" value="*f_op" style="whiteSpace=wrap;html=1;" vertex="1" parent="1">
                    <mxGeometry x="830" y="115" width="120" height="20" as="geometry"/>
                </mxCell>
                <mxCell id="86" value="f_count" style="whiteSpace=wrap;html=1;" vertex="1" parent="1">
                    <mxGeometry x="830" y="135" width="120" height="20" as="geometry"/>
                </mxCell>
                <mxCell id="87" value="f_flags" style="whiteSpace=wrap;html=1;" vertex="1" parent="1">
                    <mxGeometry x="830" y="155" width="120" height="20" as="geometry"/>
                </mxCell>
                <mxCell id="88" value="f_mode" style="whiteSpace=wrap;html=1;" vertex="1" parent="1">
                    <mxGeometry x="830" y="175" width="120" height="20" as="geometry"/>
                </mxCell>
                <mxCell id="89" value="f_pos" style="whiteSpace=wrap;html=1;" vertex="1" parent="1">
                    <mxGeometry x="830" y="195" width="120" height="20" as="geometry"/>
                </mxCell>
                <mxCell id="90" value="..." style="whiteSpace=wrap;html=1;" vertex="1" parent="1">
                    <mxGeometry x="830" y="215" width="120" height="20" as="geometry"/>
                </mxCell>
                <mxCell id="91" value="struct file" style="text;html=1;resizable=0;autosize=1;align=center;verticalAlign=middle;points=[];fillColor=none;strokeColor=none;rounded=0;" vertex="1" parent="1">
                    <mxGeometry x="855" y="265" width="60" height="20" as="geometry"/>
                </mxCell>
                <mxCell id="92" value="struct file" style="text;html=1;resizable=0;autosize=1;align=center;verticalAlign=middle;points=[];fillColor=none;strokeColor=none;rounded=0;" vertex="1" parent="1">
                    <mxGeometry x="855" y="75" width="60" height="20" as="geometry"/>
                </mxCell>
            </root>
        </mxGraphModel>
    </diagram>
</mxfile>